<svg width="19" height="18" viewBox="0 0 19 18" fill="none" xmlns="http://www.w3.org/2000/svg">
<path d="M1.5 4.69231C1.5 11.4894 7.01056 17 13.8077 17H15.6538C16.1435 17 16.6131 16.8055 16.9593 16.4593C17.3055 16.1131 17.5 15.6435 17.5 15.1538V14.0281C17.5 13.6047 17.212 13.2355 16.8009 13.1329L13.1718 12.2254C12.8108 12.1352 12.4317 12.2706 12.2093 12.5676L11.4134 13.6285C11.1821 13.937 10.7825 14.0732 10.4206 13.9403C9.07734 13.4465 7.85746 12.6665 6.84546 11.6545C5.83347 10.6425 5.05354 9.42266 4.55969 8.07938C4.42677 7.71754 4.56297 7.31795 4.87149 7.08656L5.93241 6.29067C6.23026 6.06831 6.36482 5.68841 6.27456 5.32821L5.36708 1.69908C5.31714 1.49944 5.20192 1.32222 5.03974 1.19556C4.87755 1.0689 4.67768 1.00007 4.4719 1H3.34615C2.85652 1 2.38695 1.1945 2.04073 1.54073C1.6945 1.88695 1.5 2.35652 1.5 2.84615V4.69231Z" stroke="#1E293B" stroke-width="1.5" stroke-linecap="round" stroke-linejoin="round"/>
</svg>
