<svg width="16" height="16" viewBox="0 0 16 16" fill="none" xmlns="http://www.w3.org/2000/svg">
<path d="M7.56663 0.915809C7.60187 0.829835 7.6619 0.756288 7.73906 0.704525C7.81623 0.652762 7.90704 0.625122 7.99996 0.625122C8.09288 0.625122 8.1837 0.652762 8.26086 0.704525C8.33803 0.756288 8.39805 0.829835 8.4333 0.915809L10.2041 5.17497C10.2373 5.25467 10.2918 5.32368 10.3616 5.3744C10.4314 5.42513 10.5139 5.4556 10.6 5.46247L15.1983 5.83081C15.6141 5.86414 15.7825 6.38331 15.4658 6.65414L11.9625 9.65581C11.897 9.7118 11.8482 9.78473 11.8215 9.8666C11.7947 9.94848 11.791 10.0361 11.8108 10.12L12.8816 14.6075C12.9032 14.6975 12.8975 14.7919 12.8654 14.8787C12.8333 14.9656 12.7762 15.0409 12.7013 15.0953C12.6264 15.1497 12.5371 15.1807 12.4446 15.1843C12.3521 15.188 12.2606 15.1641 12.1816 15.1158L8.24413 12.7116C8.17058 12.6668 8.0861 12.6431 7.99996 12.6431C7.91383 12.6431 7.82935 12.6668 7.7558 12.7116L3.8183 15.1166C3.73934 15.165 3.64784 15.1888 3.55534 15.1852C3.46285 15.1815 3.37351 15.1505 3.2986 15.0961C3.2237 15.0418 3.1666 14.9664 3.13451 14.8796C3.10241 14.7927 3.09677 14.6983 3.1183 14.6083L4.18913 10.12C4.20899 10.0361 4.20534 9.94845 4.17858 9.86656C4.15182 9.78467 4.10299 9.71174 4.03746 9.65581L0.53413 6.65414C0.463974 6.59382 0.413221 6.5141 0.388254 6.425C0.363287 6.33591 0.36522 6.24143 0.39381 6.15343C0.4224 6.06543 0.47637 5.98785 0.548934 5.93045C0.621498 5.87305 0.709415 5.83838 0.80163 5.83081L5.39996 5.46247C5.486 5.4556 5.56848 5.42513 5.63832 5.3744C5.70816 5.32368 5.76265 5.25467 5.7958 5.17497L7.56663 0.915809Z" fill="#F59E0B"/>
</svg>
